<svg xmlns="http://www.w3.org/2000/svg" viewBox="0 0 436.73 46.27"><defs><style>.cls-1{fill:#fff;}</style></defs><title>Asset 2</title><g id="Layer_2" data-name="Layer 2"><g id="Layer_1-2" data-name="Layer 1"><path class="cls-1" d="M19.65,26.75,27.58,1H38l7.87,25.73L54.78,1H65.6L50,45.76H42.56l-9.79-31.1L23,45.76H15.62L0,1H10.82Z"/><path class="cls-1" d="M70.91,1h10V45.76h-10Z"/><path class="cls-1" d="M91.9,1h10V19.39L118.78,1h12.35L113.34,20.8q2.3,3.2,8.51,11.94t9.28,13H119.49L106.37,28.1l-4.48,5V45.76h-10Z"/><path class="cls-1" d="M137.34,1h10V45.76h-10Z"/><path class="cls-1" d="M185.69,10a3.86,3.86,0,0,0-1.44,3.14,3.54,3.54,0,0,0,1.76,3.1q1.76,1.15,8.13,2.72a22.91,22.91,0,0,1,9.89,4.7q3.52,3.14,3.52,9.15A12.08,12.08,0,0,1,203,42.53q-4.51,3.74-11.87,3.74-10.62,0-19.14-7.87l6-7.3q7.23,6.34,13.38,6.34a7,7,0,0,0,4.32-1.18,3.8,3.8,0,0,0,1.57-3.2,3.73,3.73,0,0,0-1.66-3.2q-1.67-1.18-6.59-2.4-7.81-1.86-11.42-4.83t-3.62-9.34q0-6.37,4.58-9.82A18.42,18.42,0,0,1,189.95,0a27.49,27.49,0,0,1,9,1.54,24,24,0,0,1,7.81,4.35l-5.06,7.3a19.7,19.7,0,0,0-12-4.42A6,6,0,0,0,185.69,10Z"/><path class="cls-1" d="M248.32,1v8.9H226v9.22h20v8.51H226v9.28h23v8.83h-33V1Z"/><path class="cls-1" d="M289.79,45.76l-4.16-9.66H266.88l-4.16,9.66H252.09L271.42,1h9.66l19.33,44.74Zm-13.5-31.42-5.63,13h11.2Z"/><path class="cls-1" d="M341.88,15.87q0,10.75-8.51,13.89l11.33,16H332.41l-9.92-14.27h-6.91V45.76h-10V1h17Q333,1,337.44,4.54T341.88,15.87Zm-12,5.31q1.86-1.66,1.86-5.28t-1.92-5q-1.92-1.34-6.72-1.34h-7.49V22.85h7.3Q328,22.85,329.85,21.18Z"/><path class="cls-1" d="M372.67,36.93a14.73,14.73,0,0,0,12-5.82l6.4,6.59q-7.62,8.58-18,8.58t-17-6.53a22.06,22.06,0,0,1-6.69-16.48,22.27,22.27,0,0,1,6.82-16.61A23,23,0,0,1,372.92,0a23.63,23.63,0,0,1,18.43,8.38l-6.21,7a14.55,14.55,0,0,0-11.78-5.89,13.72,13.72,0,0,0-9.63,3.68,12.82,12.82,0,0,0-4,9.92,13.53,13.53,0,0,0,3.78,10A12.46,12.46,0,0,0,372.67,36.93Z"/><path class="cls-1" d="M426.75,1h10V45.76h-10V28.16H409v17.6H399V1h10V19.71h17.79Z"/></g></g></svg>